PathFileType	4	(X/Y/Z)	Walk7.trc
DataRate	CameraRate	NumFrames	NumMarkers	Units	OrigDataRate	OrigDataStartFrame	OrigNumFrames
200.000000	200.000000	4	59	mm	200.000000	448	565
Frame#	Times		CLAV		STRN		RBack		RASI		RACR1		RUA1		RElbow		RFA1		RWRU		LACR1		LUA1		LFA1		LCAR		RTH1		RTH3		RTH2		RLFC		LTH1		LTH3		LLFC		LTB1		LTB3		LTB4		LMT1		LASI		LTH4		RCAR		LTH2		C7		LTB2		LToe		T10		LMMAL		RFHD		RTH4		LFHD		RPSI		LMT5		LLMAL		RWRR		LElbowM		LPSI		RBHD		RTB1		LElbow		LBHD		RTB2		RTB4		RTB3		RMT1		RToe		LWRU		LWRR		RMMAL		RLMAL		RMT5		RCAL		RElbowM		LCAL
			X1	Y1	Z1	X2	Y2	Z2	X3	Y3	Z3	X4	Y4	Z4	X5	Y5	Z5	X6	Y6	Z6	X7	Y7	Z7	X8	Y8	Z8	X9	Y9	Z9	X10	Y10	Z10	X11	Y11	Z11	X12	Y12	Z12	X13	Y13	Z13	X14	Y14	Z14	X15	Y15	Z15	X16	Y16	Z16	X17	Y17	Z17	X18	Y18	Z18	X19	Y19	Z19	X20	Y20	Z20	X21	Y21	Z21	X22	Y22	Z22	X23	Y23	Z23	X24	Y24	Z24	X25	Y25	Z25	X26	Y26	Z26	X27	Y27	Z27	X28	Y28	Z28	X29	Y29	Z29	X30	Y30	Z30	X31	Y31	Z31	X32	Y32	Z32	X33	Y33	Z33	X34	Y34	Z34	X35	Y35	Z35	X36	Y36	Z36	X37	Y37	Z37	X38	Y38	Z38	X39	Y39	Z39	X40	Y40	Z40	X41	Y41	Z41	X42	Y42	Z42	X43	Y43	Z43	X44	Y44	Z44	X45	Y45	Z45	X46	Y46	Z46	X47	Y47	Z47	X48	Y48	Z48	X49	Y49	Z49	X50	Y50	Z50	X51	Y51	Z51	X52	Y52	Z52	X53	Y53	Z53	X54	Y54	Z54	X55	Y55	Z55	X56	Y56	Z56	X57	Y57	Z57	X58	Y58	Z58	X59	Y59	Z59

448	2.24	449.28	1336.1	3.1625	526.15	1111.9	7.7829	285.46	1309.6	113.32	480.46	939.87	152.98	405.5	1349.5	178.33	417.53	1140.6	245.58	421.16	1032.5	271.59	527.41	920.82	250.09	545	808.92	252.99	378.79	1346	-163.58	333.42	1140.2	-205.15	332.85	898.77	-237.74	319.06	735.91	-247.26	372.14	740.09	193.06	346.15	556.88	152.77	422.72	649.61	138.41	319.8	451.79	139.97	409.12	731.5	-160.49	473.21	557.24	-136.09	503.31	457.78	-120.67	574.18	376.44	-52.242	614.75	193.11	-58.073	596.34	283.64	-59.302	787.85	100.88	-107.7	470.55	934.93	-122.14	441.55	640.25	-150.91	603.85	793.32	238.24	506.5	665.79	-117	324.27	1413.9	12.372	559.19	278.88	-121.24	758.98	90.438	-79.593	290.56	1129.7	19.446	628.47	91.771	-24.093	495.98	1583.4	38.715	358.27	648.4	170.88	485.05	1579.1	-33.669	267.22	974.87	83.119	722.48	55.444	-136.49	606.96	69.203	-100.44	579.59	838.74	194.84	295.31	1010.5	-143.19	261.75	962.39	-30.613	328.05	1542.7	85.68	303.68	325.78	61.428	302.58	1024.4	-212.76	315.18	1545.9	-40.444	258.47	245.39	130	263.63	241.67	59.209	223.71	158.42	56.315	302.85	36.947	65.963	345.66	27.45	104.94	280.1	787.74	-249.44	336.9	777.08	-205.26	170.6	81.145	27.02	151.88	69.362	107.85	254.28	21.777	149.31	99.848	40.137	61.195	391.58	1005.5	194.81	579.79	24.349	-39.531
449	2.245	455.13	1335.1	2.3664	531.89	1110.8	7.2417	291.19	1308.7	112.48	485.81	939.16	153.06	411.21	1348.7	177.5	423.45	1139.8	244.9	427.4	1031.9	271.14	534.07	920.52	249.45	552.1	808.7	252.32	384.68	1344.8	-164.41	338.6	1139.1	-205.69	336.38	897.79	-238.28	321.04	735.03	-247.98	377	739.44	192.8	349.88	556.37	152.64	426.88	648.69	138.01	322.69	451.41	139.82	414.52	730.19	-161.06	478.25	555.85	-136.29	508.98	456.7	-120.9	580.98	376.26	-52.35	624.54	193.48	-58.484	604.7	283.77	-59.566	799.45	103.87	-107.77	476.67	933.59	-122.27	446.78	638.89	-151.3	611.02	793.37	237.55	511.59	664.33	-117.04	330.09	1413	11.457	567.71	278.54	-121.58	770.62	92.858	-79.922	296.36	1128.8	18.617	639.89	92.246	-24.576	501.62	1582.5	37.771	362.57	647.85	170.71	490.73	1578.2	-34.613	272.91	973.92	82.161	734.81	57.328	-136.91	618.83	69.432	-101.01	586.52	838.68	194.17	300.23	1009.7	-143.47	267.7	961.37	-31.535	333.72	1541.7	84.697	305.75	325.3	61.439	307.22	1023.6	-213.08	320.89	1544.9	-41.444	259.8	245.34	129.99	265.1	241.5	59.22	224.56	158.52	56.355	302.87	36.92	65.951	345.65	27.412	105.06	282.55	787.2	-249.84	339.5	775.94	-205.99	170.96	81.631	27.024	152.11	69.961	107.86	254.26	21.775	149.28	99.95	41.019	61.225	398.2	1004.4	194.21	592.24	23.946	-40.189
450	2.25	461.01	1334.1	1.5351	537.66	1109.7	6.6637	296.94	1307.9	111.6	491.2	938.48	153.11	416.94	1347.8	176.63	429.38	1139.1	244.19	433.61	1031.2	270.67	540.66	920.19	248.8	559.11	808.45	251.66	390.6	1343.7	-165.27	343.81	1138.1	-206.27	339.98	896.81	-238.83	323.15	734.17	-248.7	381.9	738.8	192.51	353.66	555.87	152.5	431.09	647.77	137.6	325.64	451.04	139.65	420.04	728.96	-161.66	483.53	554.58	-136.46	514.81	455.7	-121.11	587.73	376.02	-52.425	633.83	193.74	-58.805	612.78	283.82	-59.768	810.29	106.4	-107.78	482.84	932.27	-122.39	452.2	637.63	-151.7	618.1	793.38	236.86	516.83	663.03	-117.08	335.92	1412.1	10.512	575.96	278.19	-121.86	781.47	94.915	-80.17	302.19	1127.8	17.754	650.57	92.632	-24.955	507.28	1581.7	36.796	366.93	647.31	170.52	496.42	1577.3	-35.588	278.65	972.99	81.18	746.26	58.923	-137.23	629.91	69.62	-101.48	593.37	838.56	193.5	305.18	1008.9	-143.8	273.69	960.36	-32.484	339.4	1540.7	83.688	307.87	324.84	61.454	311.9	1022.7	-213.45	326.61	1543.8	-42.472	261.17	245.33	129.99	266.59	241.35	59.242	225.44	158.66	56.413	302.89	36.891	65.94	345.65	27.387	105.16	285.12	786.67	-250.24	342.22	774.83	-206.72	171.32	82.154	27.06	152.35	70.614	107.89	254.26	21.77	149.25	100.05	41.968	61.275	404.76	1003.4	193.56	603.8	23.598	-40.741
451	2.255	466.92	1333.1	0.66788	543.46	1108.6	6.0475	302.73	1307.1	110.68	496.65	937.83	153.12	422.7	1346.9	175.73	435.32	1138.3	243.44	439.78	1030.5	270.18	547.18	919.82	248.15	566.01	808.16	251.02	396.55	1342.5	-166.18	349.07	1137	-206.91	343.67	895.85	-239.39	325.41	733.33	-249.39	386.85	738.16	192.2	357.5	555.37	152.34	435.36	646.87	137.17	328.67	450.69	139.48	425.71	727.81	-162.29	489.07	553.46	-136.62	520.82	454.8	-121.32	594.43	375.73	-52.469	642.61	193.89	-59.036	620.56	283.78	-59.906	820.35	108.41	-107.72	489.06	930.97	-122.5	457.81	636.49	-152.09	625.07	793.33	236.2	522.26	661.9	-117.11	341.78	1411.1	9.5345	583.95	277.83	-122.1	791.52	96.553	-80.33	308.07	1126.8	16.861	660.48	92.896	-25.225	512.94	1580.9	35.791	371.34	646.76	170.31	502.11	1576.4	-36.593	284.42	972.07	80.182	756.8	60.177	-137.45	640.17	69.735	-101.85	600.12	838.39	192.83	310.15	1008.1	-144.18	279.71	959.38	-33.456	345.11	1539.7	82.654	310.05	324.39	61.472	316.62	1021.9	-213.86	332.35	1542.7	-43.529	262.58	245.35	130	268.12	241.23	59.274	226.33	158.83	56.493	302.91	36.861	65.932	345.65	27.376	105.23	287.82	786.13	-250.66	345.04	773.75	-207.44	171.69	82.719	27.132	152.6	71.326	107.94	254.25	21.762	149.22	100.16	42.993	61.35	411.26	1002.4	192.87	614.42	23.281	-41.18
